<?xml version="1.0" standalone="no"?>
<!DOCTYPE svg PUBLIC "-//W3C//DTD SVG 20010904//EN"
 "http://www.w3.org/TR/2001/REC-SVG-20010904/DTD/svg10.dtd">
<svg version="1.0" xmlns="http://www.w3.org/2000/svg"
 width="474.000000pt" height="340.000000pt" viewBox="0 0 474.000000 340.000000"
 preserveAspectRatio="xMidYMid meet">

<g transform="translate(0.000000,340.000000) scale(0.100000,-0.100000)"
fill="#000000" stroke="none">
<path d="M255 3211 c-46 -21 -79 -54 -94 -94 -8 -20 -11 -401 -11 -1223 0
-1289 -3 -1220 52 -1271 58 -54 33 -53 888 -53 l790 0 0 -100 0 -100 -308 0
c-332 0 -347 -2 -340 -51 l3 -24 1005 0 1005 0 3 24 c7 49 -8 51 -340 51
l-308 0 0 100 0 100 793 0 c897 0 845 -4 906 81 l31 42 0 1198 c0 824 -3 1206
-11 1226 -15 40 -48 73 -94 94 -38 18 -115 19 -1985 19 -1870 0 -1947 -1
-1985 -19z m3950 -1311 l0 -1245 -1965 0 -1965 0 -3 1248 -2 1247 1967 -2
1968 -3 0 -1245z"/>
</g>
</svg>
