<?xml version="1.0" standalone="no"?>
<!DOCTYPE svg PUBLIC "-//W3C//DTD SVG 20010904//EN"
 "http://www.w3.org/TR/2001/REC-SVG-20010904/DTD/svg10.dtd">
<svg version="1.0" xmlns="http://www.w3.org/2000/svg"
 width="391.000000pt" height="289.000000pt" viewBox="0 0 391.000000 289.000000"
 preserveAspectRatio="xMidYMid meet">

<g transform="translate(0.000000,289.000000) scale(0.100000,-0.100000)"
fill="#000000" stroke="none">
<path d="M295 2739 c-21 -5 -50 -20 -63 -32 -55 -51 -52 1 -52 -1054 1 -1080
-3 -1018 63 -1067 l28 -21 1622 -3 c1556 -2 1623 -1 1657 16 22 12 43 35 57
62 l23 43 0 799 c0 640 -2 798 -12 792 -10 -6 -9 -3 0 9 11 12 13 56 10 189
-3 162 -4 175 -26 206 -13 18 -38 40 -55 50 -30 16 -134 17 -1622 19 -956 0
-1606 -3 -1630 -8z m3145 -372 c1 -1191 0 -1691 -3 -1693 -3 -4 -489 -4 -2254
-4 l-823 0 0 980 0 980 713 2 c391 2 1084 2 1540 0 l827 -2 0 -263z"/>
<path d="M97 513 c-4 -3 -7 -41 -7 -83 0 -70 2 -78 28 -101 38 -35 65 -51 160
-93 l83 -36 1552 2 1552 3 95 46 c52 25 110 58 128 74 33 27 33 28 30 109 l-3
81 -1806 2 c-993 2 -1809 0 -1812 -4z m3033 -78 c0 -20 -23 -29 -55 -21 -42
11 -31 36 15 36 29 0 40 -4 40 -15z m148 -2 c-2 -12 -14 -18 -41 -19 -31 -2
-37 1 -37 17 0 16 7 19 41 19 33 0 40 -3 37 -17z m142 -1 c0 -26 -66 -27 -73
-1 -4 16 1 19 34 19 31 0 39 -4 39 -18z m-1410 -87 c0 -13 -29 -15 -205 -15
-176 0 -205 2 -205 15 0 13 29 15 205 15 176 0 205 -2 205 -15z"/>
</g>
</svg>
