<?xml version="1.0" standalone="no"?>
<!DOCTYPE svg PUBLIC "-//W3C//DTD SVG 20010904//EN"
 "http://www.w3.org/TR/2001/REC-SVG-20010904/DTD/svg10.dtd">
<svg version="1.0" xmlns="http://www.w3.org/2000/svg"
 width="105.000000pt" height="176.000000pt" viewBox="0 0 105.000000 176.000000"
 preserveAspectRatio="xMidYMid meet">

<g transform="translate(0.000000,176.000000) scale(0.100000,-0.100000)"
fill="#000000" stroke="none">
<path d="M146 1534 c-14 -14 -16 -85 -16 -629 0 -544 2 -615 16 -629 13 -14
59 -16 345 -16 316 0 330 1 349 20 20 20 20 33 20 623 0 529 -2 605 -16 625
-15 22 -15 22 -349 22 -290 0 -336 -2 -349 -16z m414 -54 c0 -6 -28 -10 -65
-10 -37 0 -65 4 -65 10 0 6 28 10 65 10 37 0 65 -4 65 -10z m250 -575 l0 -485
-315 0 -315 0 0 485 0 485 315 0 315 0 0 -485z m-282 -527 c15 -15 15 -61 0
-76 -27 -27 -88 0 -88 39 0 40 60 65 88 37z"/>
</g>
</svg>
