<?xml version="1.0" standalone="no"?>
<!DOCTYPE svg PUBLIC "-//W3C//DTD SVG 20010904//EN"
 "http://www.w3.org/TR/2001/REC-SVG-20010904/DTD/svg10.dtd">
<svg version="1.0" xmlns="http://www.w3.org/2000/svg"
 width="258.000000pt" height="171.000000pt" viewBox="0 0 258.000000 171.000000"
 preserveAspectRatio="xMidYMid meet">

<g transform="translate(0.000000,171.000000) scale(0.100000,-0.100000)"
fill="#000000" stroke="none">
<path d="M183 1516 l-28 -24 -3 -624 c-2 -465 1 -630 9 -652 25 -58 -12 -56
1075 -56 1086 0 1046 -2 1073 56 13 30 16 1251 2 1273 -5 7 -14 11 -20 7 -7
-4 -9 -1 -5 8 3 8 -3 19 -15 25 -14 8 -330 11 -1040 11 l-1020 0 -28 -24z
m2018 -661 c-1 -593 -2 -610 -21 -617 -10 -4 -443 -6 -962 -5 l-943 2 -3 618
-2 617 966 -2 966 -3 -1 -610z"/>
</g>
</svg>
